<?xml version="1.0" encoding="UTF-8" standalone="no"?>
<!DOCTYPE svg PUBLIC "-//W3C//DTD SVG 1.1//EN" "http://www.w3.org/Graphics/SVG/1.1/DTD/svg11.dtd">
<svg width="100%" height="100%" viewBox="0 0 851 567" version="1.1" xmlns="http://www.w3.org/2000/svg" xmlns:xlink="http://www.w3.org/1999/xlink" xml:space="preserve" xmlns:serif="http://www.serif.com/" style="fill-rule:evenodd;clip-rule:evenodd;stroke-linejoin:round;stroke-miterlimit:2;">
    <g transform="matrix(1,0,0,1,-165.582086,-179.464158)">
        <g transform="matrix(1,0,0,1,1945,-292)">
            <g transform="matrix(1,0,0,1,0.18778,-12)">
                <g transform="matrix(0.842278,-0.539043,0.539043,0.842278,-2797.109354,49.840633)">
                    <path d="M741.841,1471.909C738.738,1471.969 735.625,1472 732.5,1472C561.682,1472 423,1380.591 423,1268C423,1155.409 561.682,1064 732.5,1064C831.815,1064 920.267,1094.9 976.916,1142.897C868.378,1088.224 757.511,1088.225 698.633,1152.386C631.792,1225.223 653.074,1357.725 741.841,1471.909Z" style="fill:rgb(48,98,115);"/>
                </g>
                <g transform="matrix(1.123303,0.196517,-0.172328,0.98504,-2371.939912,-582.908075)">
                    <path d="M986.935,1247.607C911.988,1208.989 863,1145.263 863,1073.247C863,986.164 934.63,911.203 1037.172,878.101C1084.011,875.985 1125.454,891.545 1153.397,926.269C1183.444,963.608 1192.794,1016.78 1183.927,1074.501C1179.236,1076.365 1174.536,1078.325 1169.832,1080.381C1078.684,1120.228 1010.099,1185.747 986.935,1247.607Z" style="fill:rgb(248,108,75);"/>
                </g>
                <g transform="matrix(1.123303,0.196517,-0.172328,0.98504,-2371.939912,-582.908075)">
                    <path d="M1037.172,878.101C1073.218,866.464 1113.083,860 1155,860C1316.159,860 1447,955.553 1447,1073.247C1447,1083.655 1445.977,1093.889 1444,1103.9C1410.848,1041.146 1300.251,1028.277 1183.927,1074.501C1192.794,1016.78 1183.444,963.608 1153.397,926.269C1125.454,891.545 1084.011,875.985 1037.172,878.101Z" style="fill:rgb(255,220,154);fill-opacity:0.99;"/>
                </g>
                <g transform="matrix(1.072743,-0.209521,0.208011,1.065014,-2495.510193,-259.469751)">
                    <path d="M720.559,1174.093C763.384,1129.578 851.656,1099 953.5,1099C958.757,1099 963.977,1099.081 969.158,1099.242C936.63,1153.964 877.269,1204.585 801.147,1236.641C770.213,1218.235 743.058,1196.987 720.559,1174.093Z" style="fill:rgb(251,179,61);"/>
                </g>
                <g transform="matrix(1.072743,-0.209521,0.208011,1.065014,-2495.510193,-259.469751)">
                    <path d="M801.147,1236.641C877.269,1204.585 936.63,1153.964 969.158,1099.242C1097.617,1103.226 1201.145,1155.903 1212.89,1222.372C1191.558,1254.632 1155.849,1277.628 1111.571,1290.152C1086.19,1276.189 1048.68,1269.882 1008.102,1274.99C985,1277.898 963.765,1284.146 945.849,1292.647C921.363,1287.642 896.434,1280.385 871.551,1270.776C846.423,1261.074 822.855,1249.557 801.147,1236.641Z" style="fill:rgb(48,98,115);"/>
                </g>
                <g transform="matrix(1.072743,-0.209521,0.208011,1.065014,-2495.510193,-259.469751)">
                    <path d="M1212.89,1222.372C1213.624,1226.53 1214,1230.742 1214,1235C1214,1270.918 1187.271,1303.603 1143.641,1327.924C1140.404,1312.597 1128.773,1299.616 1111.571,1290.152C1155.849,1277.628 1191.558,1254.632 1212.89,1222.372Z" style="fill:rgb(248,108,75);"/>
                </g>
                <g transform="matrix(1.072743,-0.209521,0.208011,1.065014,-2495.510193,-259.469751)">
                    <path d="M890.546,1366.995C777.145,1352.28 693,1298.73 693,1235C693,1213.11 702.928,1192.42 720.559,1174.093C743.058,1196.987 770.213,1218.235 801.147,1236.641C822.855,1249.557 846.423,1261.074 871.551,1270.776C896.434,1280.385 921.363,1287.642 945.849,1292.647C909.35,1309.967 886.628,1336.637 889.956,1363.467C890.104,1364.656 890.301,1365.832 890.546,1366.995Z" style="fill:rgb(248,108,75);"/>
                </g>
                <g transform="matrix(1.233644,-0.405009,0.408832,1.245288,-3395.373108,-628.00981)">
                    <path d="M1172.127,1696.428C1172.043,1695.447 1172,1694.461 1172,1693.469C1172,1671.083 1193.744,1651.522 1226.027,1641.068C1275.155,1657.443 1323.459,1662.31 1364.713,1656.157C1378.101,1665.711 1386.471,1677.577 1387.586,1690.504C1345.124,1707.361 1286.924,1713.982 1224.297,1706.228C1206.168,1703.984 1188.698,1700.662 1172.127,1696.428Z" style="fill:rgb(255,220,154);"/>
                </g>
                <g transform="matrix(1.233644,-0.405009,0.408832,1.245288,-3395.373108,-628.00981)">
                    <path d="M1387.586,1690.504C1387.671,1691.486 1387.714,1692.475 1387.714,1693.469C1387.714,1726.842 1339.385,1753.937 1279.857,1753.937C1222.099,1753.937 1174.883,1728.429 1172.127,1696.428C1188.698,1700.662 1206.168,1703.984 1224.297,1706.228C1286.924,1713.982 1345.124,1707.361 1387.586,1690.504Z" style="fill:rgb(251,179,61);"/>
                </g>
                <g transform="matrix(1.233644,-0.405009,0.408832,1.245288,-3395.373108,-628.00981)">
                    <path d="M1226.027,1641.068C1241.873,1635.937 1260.258,1633 1279.857,1633C1314.281,1633 1344.96,1642.061 1364.713,1656.157C1323.459,1662.31 1275.155,1657.443 1226.027,1641.068Z" style="fill:rgb(248,108,75);"/>
                </g>
            </g>
        </g>
    </g>
</svg>
